<?xml version="1.0" encoding="utf-8"?>

<!DOCTYPE svg PUBLIC "-//W3C//DTD SVG 1.1//EN" "http://www.w3.org/Graphics/SVG/1.1/DTD/svg11.dtd">
<!-- Uploaded to: SVG Repo, www.svgrepo.com, Generator: SVG Repo Mixer Tools -->
<svg height="800px" width="800px" version="1.1" id="_x32_" xmlns="http://www.w3.org/2000/svg" xmlns:xlink="http://www.w3.org/1999/xlink" 
	 viewBox="0 0 512 512"  xml:space="preserve">
<style type="text/css">
	.st0{fill:#000000;}
</style>
<g>
	<path class="st0" d="M60.819,195.631v124.93h165.67V178.61H77.831C68.422,178.61,60.819,186.238,60.819,195.631z"/>
	<path class="st0" d="M434.168,178.61H285.511v141.952h165.67v-124.93C451.181,186.238,443.577,178.61,434.168,178.61z"/>
	<path class="st0" d="M60.819,494.987c0,9.409,7.604,17.013,17.012,17.013h148.658V370.056H60.819V494.987z"/>
	<path class="st0" d="M285.511,512h148.657c9.409,0,17.013-7.604,17.013-17.013v-124.93h-165.67V512z"/>
	<path class="st0" d="M392.688,113.584c6.998-7.675,12.616-16.012,16.54-24.83c3.916-8.81,6.146-18.132,6.146-27.557
		c0.008-6.264-1-12.552-3.089-18.589c-2.333-6.737-5.721-12.853-9.913-18.148c-6.28-7.967-14.326-14.098-23.223-18.219
		C370.253,2.128,360.482,0,350.513,0c-7.305,0-14.704,1.151-21.906,3.523c-10.812,3.546-21.182,9.905-29.92,19.046
		c-8.755,9.149-15.847,21.04-20.504,35.413c-6.084,18.692-24.302,61.102-24.807,62.142h-1.733
		c-0.512-1.04-18.723-43.451-24.806-62.142c-3.113-9.59-7.282-18.069-12.333-25.358c-7.565-10.945-17.091-19.212-27.477-24.618
		C176.64,2.586,165.45-0.007,154.504,0c-13.278,0.008-26.248,3.783-37.218,11.032c-5.476,3.617-10.457,8.125-14.634,13.428
		c-4.2,5.295-7.588,11.41-9.921,18.148c-2.096,6.044-3.089,12.332-3.081,18.589c0,6.273,0.985,12.522,2.805,18.589
		c3.192,10.622,8.874,20.701,16.485,29.905c11.442,13.806,27.265,25.697,46.485,34.231c19.211,8.526,41.859,13.672,66.87,13.672
		c14.168-0.008,29.668,0.118,30.212,0c0.544,0.118,16.036-0.008,30.22,0c19.046,0,36.738-2.978,52.568-8.172
		C359.055,141.621,378.669,128.91,392.688,113.584z M314.454,49.164c5.004-7.226,10.834-12.143,16.989-15.358
		c6.162-3.215,12.687-4.704,19.07-4.72c7.738,0,15.193,2.238,21.166,6.21c3.01,1.986,5.65,4.389,7.856,7.186
		s3.987,5.989,5.256,9.637c0.992,2.861,1.473,5.863,1.481,9.07c0,3.216-0.504,6.643-1.584,10.236
		c-1.876,6.296-5.54,13.096-11.032,19.716c-8.195,9.921-20.433,19.345-35.863,26.185c-15.444,6.856-34.05,11.166-55.066,11.166
		c-1.126,0-2.222-0.016-3.278-0.048c7.643-12.813,16.879-32.214,26.398-61.48C308.166,59.849,311.113,53.994,314.454,49.164z
		 M122.385,76.942c-2.497-5.611-3.64-10.938-3.64-15.745c0-3.215,0.488-6.209,1.481-9.062l0.007-0.016
		c1.261-3.648,3.042-6.839,5.256-9.637c3.302-4.192,7.604-7.518,12.592-9.827c4.98-2.308,10.623-3.57,16.422-3.57
		c4.255,0,8.574,0.67,12.805,2.073c6.352,2.096,12.49,5.791,17.999,11.536c5.492,5.745,10.394,13.601,13.868,24.278
		c9.511,29.259,18.755,48.66,26.398,61.481c-1.063,0.023-2.151,0.04-3.278,0.04c-16.012,0-30.63-2.498-43.514-6.722
		c-19.322-6.32-34.735-16.588-44.972-27.809C128.681,88.352,124.86,82.528,122.385,76.942z"/>
</g>
</svg>